PathFileType	4	(X/Y/Z)	/Users/rkoike/Documents/python/sports2d/webcam_20251024_144952/webcam_20251024_144952_px_person00.trc
DataRate	CameraRate	NumFrames	NumMarkers	Units	OrigDataRate	OrigDataStartFrame	OrigNumFrames
30	30	11	22	m	30	240	962
Frame#	Time	Hip			RHip			RKnee			RAnkle			RBigToe			RSmallToe			RHeel			LHip			LKnee			LAnkle			LBigToe			LSmallToe			LHeel			Neck			Head			Nose			RShoulder			RElbow			RWrist			LShoulder			LElbow			LWrist			
		X1	Y1	Z1	X2	Y2	Z2	X3	Y3	Z3	X4	Y4	Z4	X5	Y5	Z5	X6	Y6	Z6	X7	Y7	Z7	X8	Y8	Z8	X9	Y9	Z9	X10	Y10	Z10	X11	Y11	Z11	X12	Y12	Z12	X13	Y13	Z13	X14	Y14	Z14	X15	Y15	Z15	X16	Y16	Z16	X17	Y17	Z17	X18	Y18	Z18	X19	Y19	Z19	X20	Y20	Z20	X21	Y21	Z21	X22	Y22	Z22
240	8.008324661810615	564.2962179676732	696.7421550906158	0.0	426.7069421704532	703.7430194311289	0.0	451.69188983542637	738.7397854312206	0.0	181.40581050550895	715.0871150593762	0.0			0.0			0.0			0.0	706.1786064134344	695.8770059473212	0.0	836.0256704499557	189.45738637298763	0.0	709.9800650818479	273.49094563867493	0.0	513.93505859375	710.3623046875	0.0	836.0301041541002	273.4706758332129	0.0			0.0	563.709537827093	370.4858579447566	0.0	559.33407140137	180.8858155569672	0.0	546.3677587796234	203.2257777441876	0.0	368.8595233554552	398.7535002425173	0.0	240.1912543888387	179.59380638359266	0.0	436.81538482593874	262.42003426216974	0.0	762.4782686939985	386.95078866469777	0.0	894.3720929860964	161.35761335093082	0.0	691.3663336941936	250.0058988385672	0.0
241	8.041692681234826	559.2438861717675	696.1404830361778	0.0	422.4628704981409	703.5986408507148	0.0	451.69188983543444	738.7397854312278	0.0	181.40581050550895	715.0871150593762	0.0			0.0			0.0			0.0	701.393785813801	695.6189308457	0.0	836.0273019474615	189.44539362749973	0.0	709.9731538431724	273.48348683301197	0.0	513.93505859375	710.3623046875	0.0	836.0301041541002	273.4706758332129	0.0			0.0	562.3778924782814	375.93856439625705	0.0	558.2759274076782	186.95233666542208	0.0	545.1470980520379	208.83684605190882	0.0	370.99901171906015	402.9364262294547	0.0	241.8609971417584	189.20181374014908	0.0	441.86372133497395	273.8136872954003	0.0	757.6677977774591	392.8150743140611	0.0	890.8224432831154	165.54137483373165	0.0	687.2695363264247	258.02989489818145	0.0
242	8.075060700659037	555.4068257402746	693.7613039541942	0.0	420.2014884373649	700.6448015789956	0.0	451.6918898354318	738.7397854312261	0.0	181.40581050550895	715.0871150593762	0.0			0.0			0.0			0.0	695.5630111737973	692.9443258215547	0.0	836.0299368509669	189.42602508642983	0.0	709.9619920445518	273.471440701968	0.0	513.93505859375	710.3623046875	0.0	836.0301041541002	273.4706758332129	0.0			0.0	562.3667723746725	380.29468720039097	0.0	557.0506735079009	192.16581630387316	0.0	544.7071429222129	216.22415060040103	0.0	376.8407896507284	407.9887234713417	0.0	242.69451791232305	199.43280753991036	0.0	453.90377757463386	290.25300956969267	0.0	750.9423324464302	400.86743491099827	0.0	889.0738821228964	170.87749885616648	0.0	682.5114378642614	273.1280757254723	0.0
243	8.108428720083248	552.1867502781113	693.8003200330759	0.0	419.28172641688315	698.2895175405339	0.0	451.6918898354292	738.739785431224	0.0	181.40581050550895	715.0871150593762	0.0			0.0			0.0			0.0	690.3906780341131	691.7020303785072	0.0	836.030591047102	189.42121624824958	0.0	709.9592207835076	273.46844987810255	0.0	513.93505859375	710.3623046875	0.0	836.0301041541002	273.4706758332129	0.0			0.0	563.9753745555761	382.7796528823484	0.0	556.5258139250806	198.8956229412155	0.0	543.1986312290411	224.3930865525775	0.0	383.7077395572301	412.97370501858444	0.0	243.4062444170687	209.42633689944302	0.0	468.20317233139406	306.52978395382416	0.0	745.4191703862083	408.77561671826567	0.0	888.9895626052054	178.20577252217413	0.0	678.4116066807721	290.67903672573823	0.0
244	8.141796739507459	550.0266846778034	697.6490034988717	0.0	419.0227144471781	698.0590574279034	0.0	451.69188983542875	738.7397854312237	0.0	181.40581050550895	715.0871150593762	0.0			0.0			0.0			0.0	686.3382981056858	692.3166273519905	0.0	836.0303168349765	189.42323191556142	0.0	709.9603823822334	273.46970350853854	0.0	513.93505859375	710.3623046875	0.0	836.0301041541002	273.4706758332129	0.0			0.0	565.8510082572163	385.2683206949741	0.0	557.9607133462837	208.2558574450686	0.0	541.6227343140855	231.04366140465623	0.0	388.32862325836254	417.8917448739115	0.0	245.47700742419295	218.19245203731722	0.0	478.1828743112665	318.17192121725384	0.0	742.973736164987	415.20212076929613	0.0	890.2378245070291	186.62603827815428	0.0	677.7607702728558	303.71387755023807	0.0
245	8.175164758931668	549.8159897568452	701.8280378673109	0.0	418.9575616061718	697.9555162640665	0.0	451.6918898354291	738.7397854312239	0.0	181.40581050550895	715.0871150593762	0.0			0.0			0.0			0.0	682.3787740872043	691.2694880724288	0.0	836.0300874042065	189.42491840589207	0.0	709.9613542812203	273.4707524096123	0.0	513.93505859375	710.3623046875	0.0	836.0301041541002	273.4706758332129	0.0			0.0	566.3606418562902	390.4179730681423	0.0	561.6628624105313	217.93624244421665	0.0	543.0085169861452	235.051080146319	0.0	390.42188601098053	423.4118270788822	0.0	249.8172819225787	225.3402387035304	0.0	482.4473304539667	325.9724680269391	0.0	742.1444783568123	420.98297138002476	0.0	892.6958816194851	193.69362676206129	0.0	681.6629368932315	309.7530284463345	0.0
246	8.20853277835588	550.8524828670796	703.4592505724148	0.0	417.9942119913946	696.9145036392326	0.0	451.6918898354293	738.7397854312242	0.0	181.40581050550895	715.0871150593762	0.0			0.0			0.0			0.0	679.1152097437707	688.1141938780182	0.0	836.0300563182985	189.42514691090977	0.0	709.9614859652219	273.470894526738	0.0	513.93505859375	710.3623046875	0.0	836.0301041541002	273.4706758332129	0.0			0.0	565.986942773348	397.04844253641966	0.0	566.3413704893908	224.39086821613864	0.0	546.8614664460928	237.52151590143308	0.0	391.8315366224027	428.68889748235557	0.0	255.8221060786994	230.67469502614762	0.0	484.4820082565218	331.6137947403438	0.0	741.5234190489323	426.1518047536533	0.0	896.2182949319318	197.7327511761837	0.0	687.5832409972702	311.51639582024296	0.0
247	8.24190079778009	551.5457909010511	703.1163243787445	0.0	415.1093540133307	696.1465941759077	0.0	451.6918898354294	738.7397854312242	0.0	181.40581050550895	715.0871150593762	0.0			0.0			0.0			0.0	678.2686465086567	685.891325598004	0.0	836.0300897573542	189.42490110846364	0.0	709.9613443129728	273.47074165159546	0.0	513.93505859375	710.3623046875	0.0	836.0301041541002	273.4706758332129	0.0			0.0	566.385532859464	401.8879390956365	0.0	570.5672448872931	226.36287088390873	0.0	549.9538941538055	240.10819602652245	0.0	393.8500117626855	432.1707652374355	0.0	262.3408876435816	234.17799652502654	0.0	487.4936400307182	334.945299720683	0.0	741.4557343327949	429.58283274851846	0.0	900.5314892277721	199.0326157342626	0.0	692.3986688180224	312.40006795836763	0.0
248	8.275268817204301	551.3802848976918	702.2912555068289	0.0	410.568921406568	696.3395192066	0.0	451.6918898354293	738.7397854312242	0.0	181.40581050550895	715.0871150593762	0.0			0.0			0.0			0.0	679.6734384817316	685.788236001202	0.0	836.03010820111	189.42476553285752	0.0	709.9612661827921	273.4706573312787	0.0	513.93505859375	710.3623046875	0.0	836.0301041541002	273.4706758332129	0.0			0.0	567.9598269992771	404.35212922947	0.0	574.1204748154355	225.5053748567399	0.0	551.1890862662472	243.37453506784723	0.0	396.52978257614444	433.9470488232304	0.0	268.92169299752953	236.54180997394153	0.0	492.00482145847496	336.3719751250972	0.0	742.1795585189086	431.3757927532136	0.0	905.3089177301074	198.98864687959622	0.0	695.6044093623831	313.7236763803834	0.0
249	8.308636836628512	550.8344950915615	701.6009359140298	0.0	405.45475707111586	697.0023561438604	0.0	451.6918898354293	738.7397854312242	0.0	181.40581050550895	715.0871150593762	0.0			0.0			0.0			0.0	681.8102600141169	686.6398482351422	0.0	836.0301084686902	189.4247635659405	0.0	709.9612650492874	273.4706561079682	0.0	513.93505859375	710.3623046875	0.0	836.0301041541002	273.4706758332129	0.0			0.0	570.009442710644	406.0085437331318	0.0	577.4597927434177	224.06200649663305	0.0	551.6753964545331	247.00062811838745	0.0	399.45912618670104	435.20152140257665	0.0	275.5853933174136	238.66900571370755	0.0	497.14700034482655	337.2148626769521	0.0	743.244450109709	432.6616147163358	0.0	910.2425837461335	198.77237436451966	0.0	698.2880155288631	315.38050052409056	0.0
250	8.342004856052723	550.5049092458614	701.0588152113725	0.0	401.06142652919027	697.5853595921716	0.0	451.6918898354293	738.7397854312242	0.0	181.40581050550895	715.0871150593762	0.0			0.0			0.0			0.0	683.8501558893505	687.3333069951867	0.0	836.0301049559912	189.42478938694475	0.0	709.9612799295433	273.4706721671644	0.0	513.93505859375	710.3623046875	0.0	836.0301041541002	273.4706758332129	0.0			0.0	571.9470863922833	407.6393433055496	0.0	580.7140861697724	223.025437811668	0.0	552.2418659145163	250.3025056469899	0.0	402.1754250539614	436.51845247566206	0.0	281.7438823104662	240.79353524314547	0.0	501.81714727242803	338.1054695909804	0.0	744.3360879395091	433.95310415924234	0.0	914.9074514657464	198.75034703239984	0.0	700.9102558442752	316.94516023136646	0.0
